<svg width="48" height="48" viewBox="0 0 48 48" fill="none" xmlns="http://www.w3.org/2000/svg">
<path d="M0 24C0 10.7452 10.7452 0 24 0C37.2548 0 48 10.7452 48 24C48 37.2548 37.2548 48 24 48C10.7452 48 0 37.2548 0 24Z" fill="#00D200"/>
<path fill-rule="evenodd" clip-rule="evenodd" d="M23 19C20.7909 19 19 20.7909 19 23C19 25.2091 20.7909 27 23 27C25.2091 27 27 25.2091 27 23C27 20.7909 25.2091 19 23 19ZM17 23C17 19.6863 19.6863 17 23 17C26.3137 17 29 19.6863 29 23C29 24.2958 28.5892 25.4957 27.8907 26.4765L31.7071 30.2929C32.0976 30.6834 32.0976 31.3166 31.7071 31.7071C31.3166 32.0976 30.6834 32.0976 30.2929 31.7071L26.4765 27.8907C25.4957 28.5892 24.2958 29 23 29C19.6863 29 17 26.3137 17 23Z" fill="white"/>
</svg>
